<svg width="50" height="39" viewBox="0 0 50 39" fill="none" xmlns="http://www.w3.org/2000/svg">
<path d="M0.295 21.594C0.49823 23.1483 1.25991 24.5755 2.43796 25.6096C3.61602 26.6436 5.13 27.2138 6.6975 27.2138C8.265 27.2138 9.77898 26.6436 10.957 25.6096C12.1351 24.5755 12.8968 23.1483 13.1 21.594H0.295ZM35.182 34.593C35.1824 34.7244 35.1569 34.8546 35.1069 34.9761C35.057 35.0977 34.9836 35.2082 34.8909 35.3013C34.7982 35.3945 34.6881 35.4685 34.5668 35.519C34.4455 35.5696 34.3154 35.5957 34.184 35.596H15.528C14.98 35.596 14.528 35.146 14.528 34.593C14.5293 34.3288 14.6353 34.076 14.8228 33.8898C15.0102 33.7037 15.2638 33.5995 15.528 33.6H34.183C34.735 33.6 35.182 34.044 35.182 34.593ZM14.637 36.107H35.074V38.994H14.637V36.107ZM36.9 21.594C37.1018 23.1493 37.8629 24.578 39.0409 25.6133C40.219 26.6486 41.7337 27.2197 43.302 27.22C44.8701 27.22 46.3846 26.6489 47.5623 25.6135C48.74 24.5781 49.5002 23.1492 49.701 21.594H36.9ZM49.349 19.585L44.106 12.363H46.909C47.591 12.363 48.14 11.804 48.14 11.113C48.14 10.428 47.59 9.875 46.909 9.875H32.061C31.6202 8.66092 30.8675 7.58435 29.8784 6.75365C28.8894 5.92295 27.699 5.36743 26.427 5.143V1.246C26.427 0.553003 25.871 3.6646e-06 25.182 3.6646e-06L25.066 0.0130037L24.95 3.6646e-06C24.7864 -0.000394054 24.6243 0.0315853 24.4732 0.0940989C24.322 0.156612 24.1847 0.248425 24.0691 0.364245C23.9536 0.480066 23.8621 0.617605 23.7999 0.768938C23.7378 0.920272 23.7062 1.08241 23.707 1.246V5.141C22.4352 5.36527 21.245 5.92076 20.2562 6.7515C19.2675 7.58225 18.5151 8.6589 18.075 9.873H3.224C2.547 9.873 1.995 10.426 1.995 11.111C1.995 11.803 2.547 12.361 3.224 12.361H5.899L0.655 19.583H0V20.917H13.398V19.583H12.74L7.498 12.363H19.667C19.667 12.081 19.698 11.804 19.74 11.539C19.783 11.414 19.812 11.287 19.812 11.156C20.0374 10.206 20.5201 9.33634 21.2072 8.64256C21.8943 7.94878 22.7592 7.45763 23.707 7.223V20.92H23.655C23.548 26.072 21.097 30.565 17.461 33.09H32.675C29.038 30.565 26.589 26.072 26.476 20.92H26.428V7.223C27.3757 7.45769 28.2404 7.94887 28.9273 8.64266C29.6142 9.33644 30.0968 10.206 30.322 11.156C30.326 11.287 30.353 11.414 30.397 11.539C30.437 11.805 30.462 12.081 30.462 12.363H42.504L37.26 19.585H36.606V20.919H50V19.585H49.349ZM6.165 19.585H1.98L6.165 13.82V19.585ZM7.236 19.585V13.82L11.421 19.585H7.236ZM42.768 19.585H38.581L42.768 13.82V19.585ZM43.834 19.585V13.82L48.024 19.585H43.834ZM7.941 8.137C7.93182 8.46043 7.79689 8.76754 7.56488 8.99306C7.33287 9.21858 7.02206 9.34475 6.6985 9.34475C6.37494 9.34475 6.06413 9.21858 5.83212 8.99306C5.60011 8.76754 5.46518 8.46043 5.456 8.137C5.456 7.451 6.014 6.891 6.701 6.891C7.385 6.89 7.941 7.451 7.941 8.137ZM44.545 8.071C44.545 8.762 43.989 9.31 43.303 9.31C43.1399 9.31106 42.9781 9.27976 42.8272 9.2179C42.6762 9.15605 42.539 9.06488 42.4235 8.94965C42.308 8.83443 42.2165 8.69744 42.1542 8.54663C42.092 8.39581 42.0603 8.23415 42.061 8.071C42.0543 7.90371 42.0814 7.73678 42.1408 7.58024C42.2002 7.4237 42.2906 7.28077 42.4066 7.16002C42.5226 7.03928 42.6618 6.94322 42.8158 6.8776C42.9699 6.81198 43.1356 6.77815 43.303 6.77815C43.4704 6.77815 43.6361 6.81198 43.7902 6.8776C43.9442 6.94322 44.0834 7.03928 44.1994 7.16002C44.3154 7.28077 44.4058 7.4237 44.4652 7.58024C44.5246 7.73678 44.5517 7.90371 44.545 8.071Z" fill="black"/>
</svg>
