<svg width="70" height="55" viewBox="0 0 70 55" fill="none" xmlns="http://www.w3.org/2000/svg">
<path d="M0.413 30.2316C0.697522 32.4076 1.76387 34.4058 3.41315 35.8534C5.06243 37.3011 7.182 38.0994 9.3765 38.0994C11.571 38.0994 13.6906 37.3011 15.3398 35.8534C16.9891 34.4058 18.0555 32.4076 18.34 30.2316H0.413ZM49.2548 48.4302C49.2554 48.6142 49.2196 48.7965 49.1497 48.9666C49.0798 49.1368 48.977 49.2915 48.8472 49.4219C48.7175 49.5523 48.5633 49.6559 48.3935 49.7266C48.2237 49.7974 48.0416 49.834 47.8576 49.8344H21.7392C20.972 49.8344 20.3392 49.2044 20.3392 48.4302C20.3411 48.0604 20.4895 47.7064 20.7519 47.4458C21.0143 47.1852 21.3694 47.0393 21.7392 47.04H47.8562C48.629 47.04 49.2548 47.6616 49.2548 48.4302ZM20.4918 50.5498H49.1036V54.5916H20.4918V50.5498ZM51.66 30.2316C51.9426 32.409 53.008 34.4092 54.6573 35.8586C56.3066 37.308 58.4271 38.1076 60.6228 38.108C62.8182 38.108 64.9384 37.3085 66.5872 35.8589C68.2359 34.4094 69.3003 32.4089 69.5814 30.2316H51.66ZM69.0886 27.419L61.7484 17.3082H65.6726C66.6274 17.3082 67.396 16.5256 67.396 15.5582C67.396 14.5992 66.626 13.825 65.6726 13.825H44.8854C44.2683 12.1253 43.2145 10.6181 41.8298 9.45511C40.4451 8.29213 38.7786 7.51441 36.9978 7.20021V1.74441C36.9978 0.774205 36.2194 5.13044e-06 35.2548 5.13044e-06L35.0924 0.0182051L34.93 5.13044e-06C34.701 -0.000551676 34.4741 0.0442194 34.2624 0.131738C34.0508 0.219257 33.8585 0.347795 33.6968 0.509943C33.535 0.672092 33.4069 0.864647 33.3199 1.07651C33.2329 1.28838 33.1887 1.51537 33.1898 1.74441V7.19741C31.4093 7.51138 29.743 8.28907 28.3587 9.45211C26.9745 10.6152 25.9212 12.1225 25.305 13.8222H4.5136C3.5658 13.8222 2.793 14.5964 2.793 15.5554C2.793 16.5242 3.5658 17.3054 4.5136 17.3054H8.2586L0.917 27.4162H0V29.2838H18.7572V27.4162H17.836L10.4972 17.3082H27.5338C27.5338 16.9134 27.5772 16.5256 27.636 16.1546C27.6962 15.9796 27.7368 15.8018 27.7368 15.6184C28.0524 14.2883 28.7282 13.0709 29.6901 12.0996C30.652 11.1283 31.8629 10.4407 33.1898 10.1122V29.288H33.117C32.9672 36.5008 29.5358 42.791 24.4454 46.326H45.745C40.6532 42.791 37.2246 36.5008 37.0664 29.288H36.9992V10.1122C38.326 10.4408 39.5366 11.1284 40.4982 12.0997C41.4599 13.071 42.1355 14.2884 42.4508 15.6184C42.4564 15.8018 42.4942 15.9796 42.5558 16.1546C42.6118 16.527 42.6468 16.9134 42.6468 17.3082H59.5056L52.164 27.419H51.2484V29.2866H70V27.419H69.0886ZM8.631 27.419H2.772L8.631 19.348V27.419ZM10.1304 27.419V19.348L15.9894 27.419H10.1304ZM59.8752 27.419H54.0134L59.8752 19.348V27.419ZM61.3676 27.419V19.348L67.2336 27.419H61.3676ZM11.1174 11.3918C11.1046 11.8446 10.9157 12.2746 10.5908 12.5903C10.266 12.906 9.83088 13.0827 9.3779 13.0827C8.92492 13.0827 8.48979 12.906 8.16497 12.5903C7.84015 12.2746 7.65125 11.8446 7.6384 11.3918C7.6384 10.4314 8.4196 9.64741 9.3814 9.64741C10.339 9.64601 11.1174 10.4314 11.1174 11.3918ZM62.363 11.2994C62.363 12.2668 61.5846 13.034 60.6242 13.034C60.3958 13.0355 60.1694 12.9917 59.958 12.9051C59.7467 12.8185 59.5546 12.6908 59.3929 12.5295C59.2312 12.3682 59.1031 12.1764 59.0159 11.9653C58.9288 11.7541 58.8845 11.5278 58.8854 11.2994C58.876 11.0652 58.914 10.8315 58.9972 10.6123C59.0803 10.3932 59.2069 10.1931 59.3693 10.024C59.5317 9.855 59.7265 9.72051 59.9422 9.62864C60.1578 9.53677 60.3898 9.48942 60.6242 9.48942C60.8586 9.48942 61.0906 9.53677 61.3062 9.62864C61.5219 9.72051 61.7168 9.855 61.8791 10.024C62.0415 10.1931 62.1681 10.3932 62.2512 10.6123C62.3344 10.8315 62.3724 11.0652 62.363 11.2994Z" fill="#B49F70"/>
</svg>
