<svg width="99" height="72" viewBox="0 0 99 72" fill="none" xmlns="http://www.w3.org/2000/svg">
<g clip-path="url(#clip0_676518_99)">
<path d="M0.413 38.6134C0.697522 40.7894 1.76387 42.7876 3.41315 44.2353C5.06243 45.6829 7.182 46.4812 9.3765 46.4812C11.571 46.4812 13.6906 45.6829 15.3398 44.2353C16.9891 42.7876 18.0555 40.7894 18.34 38.6134H0.413ZM49.2548 56.812C49.2554 56.996 49.2196 57.1783 49.1497 57.3484C49.0798 57.5186 48.977 57.6733 48.8472 57.8037C48.7175 57.9341 48.5633 58.0377 48.3935 58.1085C48.2237 58.1793 48.0416 58.2159 47.8576 58.2162H21.7392C20.972 58.2162 20.3392 57.5862 20.3392 56.812C20.3411 56.4422 20.4895 56.0882 20.7519 55.8276C21.0143 55.567 21.3694 55.4211 21.7392 55.4218H47.8562C48.629 55.4218 49.2548 56.0434 49.2548 56.812ZM20.4918 58.9316H49.1036V62.9734H20.4918V58.9316ZM51.66 38.6134C51.9426 40.7909 53.008 42.791 54.6573 44.2404C56.3066 45.6898 58.4271 46.4894 60.6228 46.4898C62.8182 46.4899 64.9384 45.6904 66.5872 44.2408C68.2359 42.7912 69.3003 40.7908 69.5814 38.6134H51.66ZM69.0886 35.8008L61.7484 25.69H65.6726C66.6274 25.69 67.396 24.9074 67.396 23.94C67.396 22.981 66.626 22.2068 65.6726 22.2068H44.8854C44.2683 20.5071 43.2145 18.9999 41.8298 17.8369C40.4451 16.674 38.7786 15.8962 36.9978 15.582V10.1262C36.9978 9.15604 36.2194 8.38184 35.2548 8.38184L35.0924 8.40004L34.93 8.38184C34.701 8.38128 34.4741 8.42606 34.2624 8.51357C34.0508 8.60109 33.8585 8.72963 33.6968 8.89178C33.535 9.05393 33.4069 9.24648 33.3199 9.45835C33.2329 9.67022 33.1887 9.89721 33.1898 10.1262V15.5792C31.4093 15.8932 29.743 16.6709 28.3587 17.8339C26.9745 18.997 25.9212 20.5043 25.305 22.204H4.5136C3.5658 22.204 2.793 22.9782 2.793 23.9372C2.793 24.906 3.5658 25.6872 4.5136 25.6872H8.2586L0.917 35.798H0V37.6656H18.7572V35.798H17.836L10.4972 25.69H27.5338C27.5338 25.2952 27.5772 24.9074 27.636 24.5364C27.6962 24.3614 27.7368 24.1836 27.7368 24.0002C28.0524 22.6702 28.7282 21.4527 29.6901 20.4814C30.652 19.5101 31.8629 18.8225 33.1898 18.494V37.6698H33.117C32.9672 44.8826 29.5358 51.1728 24.4454 54.7078H45.745C40.6532 51.1728 37.2246 44.8826 37.0664 37.6698H36.9992V18.494C38.326 18.8226 39.5366 19.5103 40.4982 20.4816C41.4599 21.4529 42.1355 22.6703 42.4508 24.0002C42.4564 24.1836 42.4942 24.3614 42.5558 24.5364C42.6118 24.9088 42.6468 25.2952 42.6468 25.69H59.5056L52.164 35.8008H51.2484V37.6684H70V35.8008H69.0886ZM8.631 35.8008H2.772L8.631 27.7298V35.8008ZM10.1304 35.8008V27.7298L15.9894 35.8008H10.1304ZM59.8752 35.8008H54.0134L59.8752 27.7298V35.8008ZM61.3676 35.8008V27.7298L67.2336 35.8008H61.3676ZM11.1174 19.7736C11.1046 20.2264 10.9157 20.6564 10.5908 20.9721C10.266 21.2879 9.83088 21.4645 9.3779 21.4645C8.92492 21.4645 8.48979 21.2879 8.16497 20.9721C7.84015 20.6564 7.65125 20.2264 7.6384 19.7736C7.6384 18.8132 8.4196 18.0292 9.3814 18.0292C10.339 18.0278 11.1174 18.8132 11.1174 19.7736ZM62.363 19.6812C62.363 20.6486 61.5846 21.4158 60.6242 21.4158C60.3958 21.4173 60.1694 21.3735 59.958 21.2869C59.7467 21.2003 59.5546 21.0727 59.3929 20.9114C59.2312 20.75 59.1031 20.5583 59.0159 20.3471C58.9288 20.136 58.8845 19.9096 58.8854 19.6812C58.876 19.447 58.914 19.2133 58.9972 18.9942C59.0803 18.775 59.2069 18.5749 59.3693 18.4059C59.5317 18.2368 59.7265 18.1023 59.9422 18.0105C60.1578 17.9186 60.3898 17.8713 60.6242 17.8713C60.8586 17.8713 61.0906 17.9186 61.3062 18.0105C61.5219 18.1023 61.7168 18.2368 61.8791 18.4059C62.0415 18.5749 62.1681 18.775 62.2512 18.9942C62.3344 19.2133 62.3724 19.447 62.363 19.6812Z" fill="black"/>
<path d="M7.10602 53.37C7.88602 53.37 8.57002 53.52 9.15802 53.82C9.75802 54.12 10.226 54.576 10.562 55.188C10.898 55.8 11.066 56.574 11.066 57.51V63H9.33802V57.708C9.33802 56.784 9.11002 56.088 8.65402 55.62C8.21002 55.152 7.58002 54.918 6.76402 54.918C6.15202 54.918 5.61802 55.038 5.16202 55.278C4.70602 55.518 4.35202 55.872 4.10002 56.34C3.86002 56.808 3.74002 57.39 3.74002 58.086V63H2.01202V53.46H3.66802V56.034L3.39802 55.35C3.71002 54.726 4.19002 54.24 4.83802 53.892C5.48602 53.544 6.24202 53.37 7.10602 53.37Z" fill="black"/>
</g>
<path d="M59.638 63V49.644H61.366V63H59.638ZM74.0073 63V60.984L73.9173 60.606V57.168C73.9173 56.436 73.7013 55.872 73.2693 55.476C72.8493 55.068 72.2133 54.864 71.3613 54.864C70.7973 54.864 70.2453 54.96 69.7053 55.152C69.1653 55.332 68.7093 55.578 68.3373 55.89L67.6173 54.594C68.1093 54.198 68.6973 53.898 69.3813 53.694C70.0773 53.478 70.8033 53.37 71.5593 53.37C72.8673 53.37 73.8753 53.688 74.5833 54.324C75.2913 54.96 75.6453 55.932 75.6453 57.24V63H74.0073ZM70.8753 63.108C70.1673 63.108 69.5433 62.988 69.0033 62.748C68.4753 62.508 68.0673 62.178 67.7793 61.758C67.4913 61.326 67.3473 60.84 67.3473 60.3C67.3473 59.784 67.4673 59.316 67.7073 58.896C67.9593 58.476 68.3613 58.14 68.9133 57.888C69.4773 57.636 70.2333 57.51 71.1813 57.51H74.2053V58.752H71.2533C70.3893 58.752 69.8073 58.896 69.5073 59.184C69.2073 59.472 69.0573 59.82 69.0573 60.228C69.0573 60.696 69.2433 61.074 69.6153 61.362C69.9873 61.638 70.5033 61.776 71.1633 61.776C71.8113 61.776 72.3753 61.632 72.8553 61.344C73.3473 61.056 73.7013 60.636 73.9173 60.084L74.2593 61.272C74.0313 61.836 73.6293 62.286 73.0533 62.622C72.4773 62.946 71.7513 63.108 70.8753 63.108ZM84.1034 63L80.5574 53.46H82.1954L85.3454 62.1H84.5714L87.8474 53.46H89.3054L92.5094 62.1H91.7534L94.9754 53.46H96.5234L92.9594 63H91.3034L88.2974 55.116H88.8014L85.7594 63H84.1034Z" fill="black"/>
<defs>
<clipPath id="clip0_676518_99">
<rect width="70" height="70" fill="white"/>
</clipPath>
</defs>
</svg>
